<svg width="20" height="21" viewBox="0 0 20 21" fill="none" xmlns="http://www.w3.org/2000/svg">
<path fill-rule="evenodd" clip-rule="evenodd" d="M10.0001 1.47169C9.01496 1.47169 8.06416 1.86275 7.35847 2.56842C6.65186 3.27504 6.25006 4.23911 6.25006 5.24988V6.02808H13.7501V5.24988C13.7501 4.23911 13.3483 3.27504 12.6417 2.56842C11.936 1.86275 10.9852 1.47169 10.0001 1.47169ZM15.2501 6.02808V5.24988C15.2501 3.87371 14.7037 2.54859 13.7225 1.56738C12.7403 0.585216 11.402 0.0280762 10.0001 0.0280762C8.59816 0.0280762 7.25984 0.585216 6.27769 1.56738C5.29647 2.54859 4.75006 3.87371 4.75006 5.24988V6.02808H1.75006C1.34276 6.02808 0.958231 6.19013 0.679341 6.46903C0.401391 6.74698 0.250061 7.11827 0.250061 7.49988V17.6249C0.250061 19.4147 1.76652 20.9717 3.62506 20.9717H16.3751C18.2119 20.9717 19.7501 19.4947 19.7501 17.6835V7.49988C19.7501 7.11827 19.5988 6.74698 19.3208 6.46903C19.0419 6.19013 18.6574 6.02808 18.2501 6.02808H15.2501ZM1.7587 7.47168C1.75517 7.47613 1.75006 7.48573 1.75006 7.49988V17.6249C1.75006 18.6701 2.6486 19.5281 3.62506 19.5281H16.3751C17.3733 19.5281 18.2501 18.7073 18.2501 17.6835V7.49988C18.2501 7.48573 18.245 7.47613 18.2415 7.47168H1.7587Z" fill="black"/>
<path fill-rule="evenodd" clip-rule="evenodd" d="M5.50006 8.27808C5.91427 8.27808 6.25006 8.6012 6.25006 8.9999V9.7499C6.25006 10.7607 6.65186 11.7247 7.35847 12.4313C8.06416 13.137 9.01496 13.5281 10.0001 13.5281C10.9852 13.5281 11.936 13.137 12.6417 12.4313C13.3483 11.7247 13.7501 10.7607 13.7501 9.7499V8.9999C13.7501 8.6012 14.0859 8.27808 14.5001 8.27808C14.9143 8.27808 15.2501 8.6012 15.2501 8.9999V9.7499C15.2501 11.1261 14.7037 12.4512 13.7225 13.4324C12.7403 14.4145 11.402 14.9717 10.0001 14.9717C8.59816 14.9717 7.25985 14.4145 6.27769 13.4324C5.29647 12.4512 4.75006 11.1261 4.75006 9.7499V8.9999C4.75006 8.6012 5.08585 8.27808 5.50006 8.27808Z" fill="black"/>
</svg>
