<svg width="20" height="19" viewBox="0 0 20 19" fill="none" xmlns="http://www.w3.org/2000/svg">
<path d="M14.5001 0.5C17.5377 0.5 20.0001 3 20.0001 6.5C20.0001 13.5 12.5001 17.5 10.0001 19C7.50006 17.5 6.10352e-05 13.5 6.10352e-05 6.5C6.10352e-05 3 2.50006 0.5 5.50006 0.5C7.36003 0.5 9.00006 1.5 10.0001 2.5C11.0001 1.5 12.6401 0.5 14.5001 0.5ZM10.934 16.1038C11.8156 15.5485 12.6101 14.9955 13.355 14.4029C16.3338 12.033 18.0001 9.4435 18.0001 6.5C18.0001 4.14076 16.4631 2.5 14.5001 2.5C13.4242 2.5 12.2594 3.06911 11.4143 3.91421L10.0001 5.32843L8.58586 3.91421C7.74074 3.06911 6.57596 2.5 5.50006 2.5C3.55912 2.5 2.00006 4.1565 2.00006 6.5C2.00006 9.4435 3.66633 12.033 6.6452 14.4029C7.39006 14.9955 8.18456 15.5485 9.06616 16.1038C9.36466 16.2919 9.66116 16.4729 10.0001 16.6752C10.339 16.4729 10.6355 16.2919 10.934 16.1038Z" fill="black"/>
</svg>
