<svg width="173" height="23" viewBox="0 0 173 23" fill="none" xmlns="http://www.w3.org/2000/svg">
<path d="M13.074 0.454998V15.986C13.074 17.908 12.485 19.427 11.307 20.543C10.1497 21.659 8.62033 22.217 6.719 22.217C4.81767 22.217 3.278 21.659 2.1 20.543C0.942667 19.427 0.364 17.908 0.364 15.986H3.929C3.94967 16.9367 4.18733 17.691 4.642 18.249C5.11733 18.807 5.80967 19.086 6.719 19.086C7.62833 19.086 8.32067 18.807 8.796 18.249C9.27133 17.6703 9.509 16.916 9.509 15.986V0.454998H13.074ZM28.65 22.217C26.6454 22.217 24.7957 21.752 23.101 20.822C21.427 19.8713 20.094 18.559 19.102 16.885C18.1307 15.1903 17.645 13.289 17.645 11.181C17.645 9.073 18.1307 7.182 19.102 5.508C20.094 3.834 21.427 2.532 23.101 1.602C24.7957 0.651332 26.6454 0.175998 28.65 0.175998C30.6754 0.175998 32.525 0.651332 34.199 1.602C35.8937 2.532 37.2267 3.834 38.198 5.508C39.1694 7.182 39.655 9.073 39.655 11.181C39.655 13.289 39.1694 15.1903 38.198 16.885C37.2267 18.559 35.8937 19.8713 34.199 20.822C32.525 21.752 30.6754 22.217 28.65 22.217ZM28.65 19.148C30.076 19.148 31.347 18.8277 32.463 18.187C33.579 17.5257 34.447 16.5957 35.067 15.397C35.7077 14.1777 36.028 12.7723 36.028 11.181C36.028 9.58967 35.7077 8.19467 35.067 6.996C34.447 5.79733 33.579 4.87767 32.463 4.237C31.347 3.59633 30.076 3.276 28.65 3.276C27.224 3.276 25.953 3.59633 24.837 4.237C23.721 4.87767 22.8427 5.79733 22.202 6.996C21.582 8.19467 21.272 9.58967 21.272 11.181C21.272 12.7723 21.582 14.1777 22.202 15.397C22.8427 16.5957 23.721 17.5257 24.837 18.187C25.953 18.8277 27.224 19.148 28.65 19.148ZM65.8246 0.454998V22H62.2906V7.244L55.7186 22H53.2696L46.6666 7.244V22H43.1326V0.454998H46.9456L54.5096 17.35L62.0426 0.454998H65.8246ZM83.4585 17.598H74.4375L72.8875 22H69.1985L76.9175 0.423999H81.0095L88.7285 22H85.0085L83.4585 17.598ZM82.4665 14.715L78.9635 4.702L75.4295 14.715H82.4665ZM99.1838 22.217C97.7371 22.217 96.4351 21.969 95.2778 21.473C94.1204 20.9563 93.2111 20.233 92.5498 19.303C91.8884 18.373 91.5578 17.288 91.5578 16.048H95.3398C95.4224 16.978 95.7841 17.7427 96.4248 18.342C97.0861 18.9413 98.0058 19.241 99.1838 19.241C100.403 19.241 101.354 18.9517 102.036 18.373C102.718 17.7737 103.059 17.009 103.059 16.079C103.059 15.3557 102.842 14.7667 102.408 14.312C101.994 13.8573 101.467 13.506 100.827 13.258C100.207 13.01 99.3388 12.7413 98.2228 12.452C96.8174 12.08 95.6704 11.708 94.7818 11.336C93.9138 10.9433 93.1698 10.344 92.5498 9.538C91.9298 8.732 91.6198 7.65733 91.6198 6.314C91.6198 5.074 91.9298 3.989 92.5498 3.059C93.1698 2.129 94.0378 1.416 95.1538 0.92C96.2698 0.423999 97.5614 0.175998 99.0288 0.175998C101.116 0.175998 102.821 0.702998 104.144 1.757C105.487 2.79033 106.231 4.21633 106.376 6.035H102.47C102.408 5.24967 102.036 4.578 101.354 4.02C100.672 3.462 99.7728 3.183 98.6568 3.183C97.6441 3.183 96.8174 3.44133 96.1768 3.958C95.5361 4.47467 95.2158 5.21867 95.2158 6.19C95.2158 6.85133 95.4121 7.399 95.8048 7.833C96.2181 8.24633 96.7348 8.577 97.3548 8.825C97.9748 9.073 98.8221 9.34167 99.8968 9.631C101.323 10.0237 102.48 10.4163 103.369 10.809C104.278 11.2017 105.043 11.8113 105.663 12.638C106.303 13.444 106.624 14.529 106.624 15.893C106.624 16.9883 106.324 18.0217 105.725 18.993C105.146 19.9643 104.288 20.7497 103.152 21.349C102.036 21.9277 100.713 22.217 99.1838 22.217ZM127.999 0.454998V22H124.465V12.576H114.328V22H110.794V0.454998H114.328V9.693H124.465V0.454998H127.999ZM142.478 22.217C140.474 22.217 138.624 21.752 136.929 20.822C135.255 19.8713 133.922 18.559 132.93 16.885C131.959 15.1903 131.473 13.289 131.473 11.181C131.473 9.073 131.959 7.182 132.93 5.508C133.922 3.834 135.255 2.532 136.929 1.602C138.624 0.651332 140.474 0.175998 142.478 0.175998C144.504 0.175998 146.353 0.651332 148.027 1.602C149.722 2.532 151.055 3.834 152.026 5.508C152.998 7.182 153.483 9.073 153.483 11.181C153.483 13.289 152.998 15.1903 152.026 16.885C151.055 18.559 149.722 19.8713 148.027 20.822C146.353 21.752 144.504 22.217 142.478 22.217ZM142.478 19.148C143.904 19.148 145.175 18.8277 146.291 18.187C147.407 17.5257 148.275 16.5957 148.895 15.397C149.536 14.1777 149.856 12.7723 149.856 11.181C149.856 9.58967 149.536 8.19467 148.895 6.996C148.275 5.79733 147.407 4.87767 146.291 4.237C145.175 3.59633 143.904 3.276 142.478 3.276C141.052 3.276 139.781 3.59633 138.665 4.237C137.549 4.87767 136.671 5.79733 136.03 6.996C135.41 8.19467 135.1 9.58967 135.1 11.181C135.1 12.7723 135.41 14.1777 136.03 15.397C136.671 16.5957 137.549 17.5257 138.665 18.187C139.781 18.8277 141.052 19.148 142.478 19.148ZM172.027 6.872C172.027 7.96733 171.768 9.00067 171.252 9.972C170.735 10.9433 169.908 11.739 168.772 12.359C167.635 12.9583 166.178 13.258 164.401 13.258H160.495V22H156.961V0.454998H164.401C166.054 0.454998 167.449 0.744332 168.586 1.323C169.743 1.881 170.601 2.64567 171.159 3.617C171.737 4.58833 172.027 5.67333 172.027 6.872ZM164.401 10.375C165.744 10.375 166.746 10.0753 167.408 9.476C168.069 8.856 168.4 7.988 168.4 6.872C168.4 4.516 167.067 3.338 164.401 3.338H160.495V10.375H164.401Z" fill="black"/>
</svg>
