<svg width="19" height="19" viewBox="0 0 19 19" fill="none" xmlns="http://www.w3.org/2000/svg">
<path d="M7.77996 1.25C6.44495 1.25 5.13991 1.64588 4.02989 2.38757C2.91986 3.12927 2.0547 4.18347 1.54381 5.41686C1.03292 6.65026 0.899252 8.00745 1.1597 9.3168C1.42015 10.6262 2.06302 11.8289 3.00702 12.7729C3.95102 13.7169 5.15375 14.3598 6.46311 14.6202C7.77248 14.8807 9.1297 14.747 10.3631 14.2361C11.5965 13.7252 12.6507 12.8601 13.3924 11.75C14.134 10.64 14.5299 9.335 14.5299 7.99996C14.5298 6.20979 13.8186 4.49298 12.5528 3.22714C11.2869 1.96131 9.5701 1.25011 7.77996 1.25Z" stroke="black" stroke-width="1.5" stroke-miterlimit="10"/>
<path d="M12.8152 13.0359L17.5293 17.75" stroke="black" stroke-width="1.5" stroke-miterlimit="10" stroke-linecap="round"/>
</svg>
